<svg width="24" height="17" viewBox="0 0 24 17" fill="none" xmlns="http://www.w3.org/2000/svg">
<path d="M22.3186 0.431008L8.49963 14.249C8.40672 14.3423 8.29631 14.4163 8.17473 14.4668C8.05315 14.5173 7.92279 14.5433 7.79113 14.5433C7.65948 14.5433 7.52912 14.5173 7.40754 14.4668C7.28596 14.4163 7.17554 14.3423 7.08263 14.249L1.73863 8.90001C1.64572 8.80673 1.53531 8.73272 1.41373 8.68222C1.29214 8.63171 1.16179 8.60572 1.03013 8.60572C0.898479 8.60572 0.768121 8.63171 0.646539 8.68222C0.524956 8.73272 0.414542 8.80673 0.321633 8.90001C0.228356 8.99292 0.154344 9.10333 0.103842 9.22491C0.0533404 9.3465 0.0273437 9.47685 0.0273438 9.60851C0.0273437 9.74016 0.0533404 9.87052 0.103842 9.9921C0.154344 10.1137 0.228356 10.2241 0.321633 10.317L5.66763 15.662C6.23158 16.2249 6.99583 16.5411 7.79263 16.5411C8.58944 16.5411 9.35369 16.2249 9.91763 15.662L23.7356 1.84701C23.8288 1.75412 23.9026 1.64377 23.9531 1.52228C24.0035 1.40079 24.0294 1.27054 24.0294 1.13901C24.0294 1.00747 24.0035 0.877231 23.9531 0.755741C23.9026 0.63425 23.8288 0.5239 23.7356 0.431008C23.6427 0.337732 23.5323 0.263719 23.4107 0.213217C23.2891 0.162716 23.1588 0.136719 23.0271 0.136719C22.8955 0.136719 22.7651 0.162716 22.6435 0.213217C22.522 0.263719 22.4115 0.337732 22.3186 0.431008Z" fill="#374957"/>
</svg>
