<svg width="24" height="24" viewBox="0 0 24 24" fill="none" xmlns="http://www.w3.org/2000/svg">
<g clip-path="url(#clip0_226_416)">
<path d="M1.172 19.1189C0.421803 19.8688 0.00022655 20.8861 0 21.9469L0 23.9998H2.053C3.11378 23.9996 4.13103 23.578 4.881 22.8279L18.224 9.48487L14.515 5.77588L1.172 19.1189Z" fill="#374957"/>
<path d="M23.1447 0.855358C22.9012 0.611594 22.612 0.418214 22.2937 0.286275C21.9754 0.154336 21.6343 0.0864258 21.2897 0.0864258C20.9452 0.0864258 20.604 0.154336 20.2857 0.286275C19.9674 0.418214 19.6782 0.611594 19.4347 0.855358L15.9287 4.36236L19.6377 8.07136L23.1447 4.56536C23.3885 4.32185 23.5819 4.03268 23.7138 3.71439C23.8457 3.39609 23.9136 3.05491 23.9136 2.71036C23.9136 2.3658 23.8457 2.02463 23.7138 1.70633C23.5819 1.38804 23.3885 1.09887 23.1447 0.855358Z" fill="#374957"/>
</g>
<defs>
<clipPath id="clip0_226_416">
<rect width="24" height="24" fill="white"/>
</clipPath>
</defs>
</svg>
