<svg width="44" height="44" viewBox="0 0 44 44" fill="none" xmlns="http://www.w3.org/2000/svg">
<circle cx="22" cy="22" r="21" fill="white" stroke="#4D462A" stroke-width="2"/>
<g clip-path="url(#clip0_212_3164)">
<path d="M33 21H23V11C23 10.7348 22.8946 10.4804 22.7071 10.2929C22.5196 10.1054 22.2652 10 22 10V10C21.7348 10 21.4804 10.1054 21.2929 10.2929C21.1054 10.4804 21 10.7348 21 11V21H11C10.7348 21 10.4804 21.1054 10.2929 21.2929C10.1054 21.4804 10 21.7348 10 22V22C10 22.2652 10.1054 22.5196 10.2929 22.7071C10.4804 22.8946 10.7348 23 11 23H21V33C21 33.2652 21.1054 33.5196 21.2929 33.7071C21.4804 33.8946 21.7348 34 22 34C22.2652 34 22.5196 33.8946 22.7071 33.7071C22.8946 33.5196 23 33.2652 23 33V23H33C33.2652 23 33.5196 22.8946 33.7071 22.7071C33.8946 22.5196 34 22.2652 34 22C34 21.7348 33.8946 21.4804 33.7071 21.2929C33.5196 21.1054 33.2652 21 33 21Z" fill="#4D462A"/>
</g>
<defs>
<clipPath id="clip0_212_3164">
<rect width="24" height="24" fill="white" transform="translate(10 10)"/>
</clipPath>
</defs>
</svg>
